<?xml version="1.0" encoding="utf-8"?>
<!-- Generator: Adobe Illustrator 21.1.0, SVG Export Plug-In . SVG Version: 6.00 Build 0)  -->
<svg version="1.1" id="Layer_1" xmlns="http://www.w3.org/2000/svg" xmlns:xlink="http://www.w3.org/1999/xlink" x="0px" y="0px"
	 viewBox="0 0 155.2 39.5" style="enable-background:new 0 0 155.2 39.5;" xml:space="preserve">
<style type="text/css">
	.st0{fill:#6B6D6C;}
	.st1{fill:#6B6D6C;}
</style>
<path class="st0" d="M12.4,28.9H10V9h7.1c2.2,0,3.8,0.6,4.9,1.8c1,1.2,1.6,2.6,1.6,4.1c0,1.7-0.6,3.1-1.7,4.2
	c-1.1,1.1-2.6,1.7-4.5,1.7h-4.8v8.1H12.4z M12.4,18.8H17c1.2,0,2.1-0.4,2.8-1.1s1.1-1.6,1.1-2.8c0-1-0.3-1.9-1-2.7
	c-0.6-0.8-1.6-1.2-2.8-1.2h-4.8L12.4,18.8L12.4,18.8z"/>
<path class="st0" d="M28.8,9v2.6h-2.5V9H28.8z M28.7,14.2v14.7h-2.3V14.2H28.7z"/>
<path class="st0" d="M44.7,28.9h-2.1v-9.5c0-1.4-0.3-2.3-0.9-2.9s-1.3-0.8-2.2-0.8c-1.2,0-2.1,0.5-2.9,1.4s-1.2,2.2-1.2,3.7v8.1
	h-2.3V14.2h2.1v2.7c1.2-2.1,2.7-3.1,4.7-3.1c1.1,0,2,0.3,2.8,0.9s1.3,1.2,1.6,1.9c0.3,0.7,0.4,2,0.4,3.8V28.9z"/>
<path class="st0" d="M61.2,11.9v1.8c-1,0-1.8,0.1-2.1,0.4c-0.4,0.2-0.6,0.7-0.7,1.3c0.9,1.1,1.4,2.3,1.4,3.6c0,1.3-0.5,2.5-1.5,3.5
	s-2.4,1.4-4.1,1.4c-0.4,0-0.7,0-1-0.1c-0.5-0.1-0.9-0.2-1-0.2c-0.3,0-0.6,0.1-0.9,0.4c-0.4,0.3-0.6,0.6-0.6,1c0,0.6,0.3,1,0.8,1.1
	c0.5,0.2,1.8,0.3,3.8,0.3c1.7,0,2.9,0.2,3.7,0.3c0.8,0.2,1.5,0.6,2,1.2s0.8,1.4,0.8,2.3c0,2.8-2.5,4.2-7.4,4.2
	c-2.3,0-4.1-0.4-5.1-1.1c-1.1-0.7-1.6-1.6-1.6-2.8c0-1.4,0.7-2.4,2.2-2.9c-1-0.6-1.4-1.4-1.4-2.4c0-1.1,0.7-2,2-2.6
	c-1.3-1-1.9-2.3-1.9-3.9c0-1.5,0.5-2.7,1.6-3.6s2.4-1.4,4-1.4c1.1,0,2.1,0.2,3,0.6c0.1-1,0.5-1.6,1-2s1.3-0.6,2.4-0.6
	C60.7,11.8,60.9,11.8,61.2,11.9z M51.4,28.3c-1.1,0.5-1.6,1.1-1.6,2c0,0.7,0.4,1.3,1.3,1.7c0.9,0.4,2,0.6,3.4,0.6
	c1.3,0,2.4-0.2,3.5-0.5c1-0.4,1.6-1,1.6-1.8c0-0.5-0.2-0.8-0.5-1.1c-0.3-0.3-0.7-0.5-1.3-0.6c-0.5-0.1-1.5-0.1-2.8-0.2
	C53.4,28.5,52.2,28.4,51.4,28.3z M54.2,22.1c1,0,1.8-0.3,2.4-0.9s0.9-1.4,0.9-2.3c0-1-0.3-1.8-1-2.4s-1.4-0.9-2.3-0.9
	s-1.6,0.3-2.3,0.9c-0.7,0.6-1,1.4-1,2.5c0,1,0.3,1.7,0.9,2.3C52.4,21.8,53.2,22.1,54.2,22.1z"/>
<g>
	<path class="st1" d="M70.8,28.9H67V12.1h-5.3V9h14.4v3.1h-5.3L70.8,28.9L70.8,28.9z"/>
	<path class="st1" d="M90.7,28.9h-3.3v-9.6c0-1-0.2-1.8-0.7-2.2s-1-0.6-1.6-0.6c-0.9,0-1.7,0.4-2.4,1.1c-0.6,0.7-1,2-1,3.7v7.6h-3.3
		V9h3.3v7.8c0.8-2.1,2.3-3.2,4.3-3.2c3,0,4.5,1.7,4.5,5.2v10.1H90.7z"/>
	<path class="st1" d="M98.1,12.5h-3.3V9h3.3V12.5z M98.1,28.9h-3.3V14.2h3.3V28.9z"/>
	<path class="st1" d="M114.3,28.9H111v-9.2c0-1-0.2-1.7-0.7-2.2c-0.4-0.5-1-0.7-1.6-0.7c-0.9,0-1.6,0.4-2.3,1.1
		c-0.7,0.8-1,1.9-1,3.4v7.6h-3.3V14.2h3v3.4c1.1-2.5,2.5-3.7,4.5-3.7c1.3,0,2.4,0.4,3.3,1.2s1.4,2.3,1.4,4.3V28.9z"/>
	<path class="st1" d="M131.8,11.4V14h-1c-0.4,0-0.8,0.1-1.2,0.2c-0.3,0.1-0.7,0.5-1,1c1.2,1,1.7,2,1.7,3.2c0,1.3-0.5,2.4-1.6,3.2
		c-1.1,0.9-2.5,1.3-4.3,1.3c-0.8,0-1.7-0.1-2.7-0.4c-0.7,0.3-1,0.8-1,1.4c0,0.4,0.2,0.7,0.5,1s0.8,0.5,1.5,0.5h4.4
		c1.5,0,2.7,0.4,3.5,1.2c0.9,0.8,1.3,1.7,1.3,2.9c0,1.4-0.6,2.5-1.9,3.5c-1.3,0.9-3.2,1.4-5.7,1.4c-4.8,0-7.1-1.3-7.1-4
		c0-1.3,0.7-2.3,2.1-3c-0.9-0.8-1.4-1.6-1.4-2.4c0-1.3,0.8-2.3,2.3-3.1c-1.4-0.8-2-2-2-3.4c0-1.2,0.5-2.3,1.5-3.1
		c1-0.9,2.5-1.3,4.6-1.3c0.9,0,1.9,0.1,2.8,0.3c0.4-1.9,1.6-2.8,3.5-2.8h1.2V11.4z M120.6,28.1c-0.5,0.4-0.7,0.9-0.7,1.3
		c0,0.7,0.4,1.3,1.2,1.8c0.8,0.5,2.1,0.8,3.8,0.8c2.6,0,3.8-0.7,3.8-2c0-0.5-0.2-0.9-0.7-1.1c-0.4-0.2-1-0.4-1.5-0.4H123
		C122.3,28.5,121.5,28.3,120.6,28.1z M124.2,20.8c1.8,0,2.7-0.9,2.7-2.6c0-0.7-0.2-1.2-0.7-1.6s-1.1-0.7-2-0.7s-1.6,0.2-2,0.7
		c-0.5,0.5-0.7,1-0.7,1.7s0.2,1.3,0.7,1.8S123.4,20.8,124.2,20.8z"/>
	<path class="st1" d="M132.7,25.5l3.1-0.6c0.5,1.2,1.5,1.8,3.1,1.8c2.1,0,3.1-0.6,3.1-1.8c0-0.4-0.2-0.7-0.5-1s-0.7-0.4-1.1-0.5
		l-2.7-0.5c-3-0.6-4.5-2-4.5-4.4c0-1.3,0.5-2.4,1.4-3.3s2.3-1.4,4.2-1.4c3.1,0,5,1.1,5.7,3.4l-3,0.6c-0.3-1.1-1.2-1.7-2.7-1.7
		c-1.8,0-2.7,0.6-2.7,1.7c0,0.8,0.7,1.3,2.1,1.6l3.2,0.7c2.5,0.5,3.7,1.9,3.7,4.2c0,1.6-0.6,2.8-1.9,3.6s-2.8,1.2-4.5,1.2
		c-1.5,0-2.8-0.3-4-0.9C133.8,27.7,133.1,26.8,132.7,25.5z"/>
</g>
</svg>
